# xmcd CD database file
#
# Track frame offsets:
#	150
#	12075
#	32100
#	52875
#	71475
#	93600
#	114900
#	133800
#	150450
#	169575
#
# Disc length: 2492 seconds
#
# Revision: 1
# Processed by: cddbd v1.5.1PL2 Copyright (c) Steve Scherf et al.
# Submitted via: freeDBTagger 0.8.2.1
#
DISCID=7609ba0a
DTITLE=森高千里 - The Best Selection Of First Moritaka 1987-1993 [CD2]
DYEAR=1999
DGENRE=misc
TTITLE0=臭いものにはフタをしろ!!
TTITLE1=雨
TTITLE2=勉強の歌
TTITLE3=八月の恋
TTITLE4=ファイト!!
TTITLE5=コンサートの夜
TTITLE6=私がオバさんになっても
TTITLE7=渡良瀬橋
TTITLE8=私の夏
TTITLE9=ハエ男
EXTD=
EXTT0=
EXTT1=
EXTT2=
EXTT3=
EXTT4=
EXTT5=
EXTT6=
EXTT7=
EXTT8=
EXTT9=
PLAYORDER=
